<?xml version="1.0" encoding="utf-8"?>
<!-- Generator: Adobe Illustrator 20.1.0, SVG Export Plug-In . SVG Version: 6.00 Build 0)  -->
<svg version="1.1" id="Layer_1" xmlns="http://www.w3.org/2000/svg" xmlns:xlink="http://www.w3.org/1999/xlink" x="0px" y="0px"
	 width="100" height="55" viewBox="0 0 304 304" style="enable-background:new 0 0 304 304;" xml:space="preserve">
<style type="text/css">
	.st0{opacity:0.55;enable-background:new    ;}
	.st1{fill:#010101;}
</style>
<g>
	<path class="st0" d="M290.1,71.8c-15.6-5.7-98.1-38.5-113.9-44.3c-15.8-5.8-22.2-5.5-40.8,1.1c-18.6,6.7-106.4,41.1-122,47.2
		c-15.6,6.1-15.3,11.4,0.6,19c15.9,7.6,104.2,43.3,118.1,49.9s23.8,6.8,41.4-2.4c17.7-9.2,100.6-43.3,116.6-51.7l0,0
		C306.3,82.3,305.7,77.5,290.1,71.8z M53.5,83.6c0-8,16.6-14.4,37.2-14.4s37.2,6.5,37.2,14.4S111.2,98,90.7,98
		C70.1,98,53.5,91.5,53.5,83.6z M157.9,129.3l-48.5-20.1L179,98.5L157.9,129.3z M165.3,64.1l-5.8,14l-9.4-15.6l-30-2.7l22.4-8.1
		l-6.7-12.4l21,8.2l19.8-6.5l-5.3,12.8l20.2,7.6L165.3,64.1z"/>
	<polygon points="222.1,65.2 263.2,81.5 222.1,97.7 	"/>
	<polygon class="st1" points="176.5,83.2 222.1,65.2 222.1,97.7 217.6,99.5 	"/>
	<path d="M290.3,90.6L290.3,90.6c-16,8.3-99,42.5-116.6,51.7c-17.7,9.2-27.5,9.1-41.4,2.4S30,102.4,14.1,94.8c-7.9-3.8-12-7-12.1-10
		v30.3c0,3,4.2,6.2,12.1,10c15.9,7.6,104.2,43.3,118.1,49.9c14,6.7,23.8,6.8,41.4-2.4c17.7-9.2,100.6-43.3,116.6-51.7l0,0
		c8.2-4.2,11.8-7.5,11.8-10.5c0-2.8,0-29.9,0-29.9c0,0,0,0,0,0C301.9,83.4,298.1,86.6,290.3,90.6z"/>
	<path class="st0" d="M290.1,123.1c-0.7-0.2-1.5-0.5-2.4-0.9c-20.8,10.1-97.2,41.6-114.1,50.4c-17.7,9.2-27.5,9.1-41.4,2.4
		c-13.4-6.4-95.8-39.7-116.1-49c-1,0.4-1.9,0.8-2.7,1c-15.6,6.1-15.3,11.4,0.6,19c15.9,7.6,104.2,43.3,118.1,49.9
		c14,6.7,23.8,6.8,41.4-2.4c17.7-9.2,100.6-43.3,116.6-51.7l0,0C306.3,133.6,305.7,128.8,290.1,123.1z"/>
	<g>
		<path d="M290.3,141.9L290.3,141.9c-16,8.3-99,42.5-116.6,51.7c-17.7,9.2-27.5,9.1-41.4,2.4c-14-6.7-102.2-42.3-118.1-49.9
			c-7.9-3.8-12-7-12.1-10v30.3c0,3,4.2,6.2,12.1,10c15.9,7.6,104.2,43.3,118.1,49.9c14,6.7,23.8,6.8,41.4-2.4
			c17.7-9.2,100.6-43.3,116.6-51.7c8.2-4.2,11.8-7.5,11.8-10.5c0-2.8,0-29.9,0-29.9c0,0,0,0,0,0
			C301.9,134.7,298.1,137.9,290.3,141.9z"/>
	</g>
	<path class="st0" d="M290.1,172.6c-0.7-0.2-1.5-0.5-2.4-0.9c-20.8,10.1-97.2,41.6-114.1,50.4c-17.7,9.2-27.5,9.1-41.4,2.4
		c-13.4-6.4-95.8-39.7-116.1-49c-1,0.4-1.9,0.8-2.7,1c-15.6,6.1-15.3,11.4,0.6,19c15.9,7.6,104.2,43.3,118.1,49.9
		c14,6.7,23.8,8.3,41.4-0.9c17.7-9.2,100.6-43.3,116.6-51.7v-1.5C306.3,183,305.7,178.3,290.1,172.6z"/>
	<g>
		<path d="M290.3,191.4c0,0-99,44-116.6,53.2c-17.7,9.2-27.5,7.6-41.4,0.9c-14-6.7-102.2-42.3-118.1-49.9c-7.9-3.8-12-7-12.1-10
			v30.3c0,3,4.2,6.2,12.1,10c15.9,7.6,104.2,43.3,118.1,49.9c14,6.7,23.8,6.8,41.4-2.4c17.7-9.2,100.6-41.8,116.6-50.2
			c8.2-4.2,11.8-9,11.8-12c0-2.8,0-29.9,0-29.9c0,0,0,0,0,0C301.9,184.2,298.1,187.4,290.3,191.4z"/>
	</g>
	<g id="Ebene_1">
	</g>
</g>
</svg>
