<?xml version="1.0" standalone="no"?><!DOCTYPE svg PUBLIC "-//W3C//DTD SVG 1.1//EN"
        "http://www.w3.org/Graphics/SVG/1.1/DTD/svg11.dtd">
<svg class="icon" height="55" width="100" viewBox="0 0 1024 1024" version="1.1" xmlns="http://www.w3.org/2000/svg">
    <path d="M416 176h-160v425c0 105.16-36.064 134.52-98.824 134.52-29.41 0-55.896-5.04-76.5-12.126L64 847.808C93.4 857.932 138.52 864 173.814 864 317.91 864 416 796.26 416 602.04V176z m348.926-16C610.04 160 512 247.996 512 364.308c0 100.166 75.5 162.88 185.28 203.33 79.4 28.314 110.786 53.614 110.786 95.076 0 45.512-36.28 74.85-104.896 74.85-63.726 0-121.58-21.28-160.788-42.51v-0.04L512 821.454c37.28 21.274 106.88 42.508 182.334 42.508C875.708 863.96 960 766.86 960 652.568c0-97.1-53.916-159.8-170.556-204.326-86.28-34.38-122.54-53.588-122.54-97.08 0-34.4 31.376-65.74 96.086-65.74 63.692 0 107.488 21.414 133.01 34.58l38.25-128c-40-17.56-93.874-32-169.324-32z"
          fill=""/>
</svg>