<svg id="Layer_2" data-name="Layer 2" xmlns="http://www.w3.org/2000/svg" width="100" height="55" viewBox="0 0 50.09 50.1">
    <defs>
        <style>.cls-1{fill:#000;}</style>
    </defs>
    <title>tool-php</title>
    <g id="Page-1">
        <g id="v5-cb">
            <g id="One-API-Copy">
                <g id="Heading">
                    <g id="Languages">
                        <g id="Php">
                            <g id="php-logo-flat">
                                <g id="Page-1-2" data-name="Page-1">
                                    <path id="Fill-3" class="cls-1"
                                          d="M45.48,25.19a6.73,6.73,0,0,1-.75,2,6.57,6.57,0,0,1-1.38,1.67,6,6,0,0,1-2.25,1.31,10.75,10.75,0,0,1-3.16.39H35.05l-.81,4H30.86l3-15h6.5A5.54,5.54,0,0,1,44.67,21a4.63,4.63,0,0,1,.81,4.17ZM26.82,30.57l1.34-6.65c.15-.76.09-1.28-.17-1.55A2.39,2.39,0,0,0,26.31,22H23.62l-1.73,8.61H18.54l3-15h3.35l-.8,4h3c1.88,0,3.18.32,3.89,1s.93,1.66.65,3.08l-1.41,7ZM17,28.87a6.13,6.13,0,0,1-2.25,1.31,10.75,10.75,0,0,1-3.16.39H8.64l-.8,4H4.46l3-15H14A5.51,5.51,0,0,1,18.26,21a4.57,4.57,0,0,1,.81,4.17,6.47,6.47,0,0,1-.75,2A6.74,6.74,0,0,1,17,28.87Zm-4.25-7H10.38L9.12,28.2h2.06a5,5,0,0,0,3-.75A4,4,0,0,0,15.58,25a2.67,2.67,0,0,0-.31-2.37,3.55,3.55,0,0,0-2.57-.69Zm26.4,0H36.79l-1.27,6.3h2.06a5.1,5.1,0,0,0,3.05-.75A4,4,0,0,0,42,25a2.67,2.67,0,0,0-.31-2.37,3.53,3.53,0,0,0-2.57-.69Z"/>
                                </g>
                            </g>
                        </g>
                    </g>
                </g>
            </g>
        </g>
    </g>
</svg>