<?xml version="1.0" standalone="no"?><!DOCTYPE svg PUBLIC "-//W3C//DTD SVG 1.1//EN"
        "http://www.w3.org/Graphics/SVG/1.1/DTD/svg11.dtd">
<svg class="icon" width="100" height="55" viewBox="0 0 1024 1024" version="1.1" xmlns="http://www.w3.org/2000/svg">
    <path d="M800.528 337.99c2.056-13.322 3.986-26.08 4.228-40.132-33.56-4.13-72.072-3.192-87.278 18.544-29.582 42.276 28.194 145.88 52.864 190.122 6.34 11.366 10.922 19.578 13.028 24.694a141.69 141.69 0 0 0 7.51 15.456c16.974-36.112 12.594-72.704 8.326-108.248-2.114-17.598-4.308-35.796-3.734-53.298 0.57-17.988 2.854-32.808 5.056-47.138z m-28.266-8.224c-2.726 2.872-8.486 7.854-16.344 8.944-1.01 0.14-2.042 0.212-3.066 0.212-11.584 0-21.58-9.04-22.41-14.9-0.952-7.07 10.584-12.448 22.49-14.106a56.12 56.12 0 0 1 7.68-0.546c10.288 0 17.104 3.052 17.79 7.96 0.442 3.174-1.962 8.054-6.14 12.436zM654.078 67.422c21.202-4.392 50.194-8.49 82.656-7.778 82.25 1.82 147.302 32.588 193.366 91.45 35.334 45.146-3.564 250.582-116.198 427.806-1.106-1.412-2.242-2.84-3.412-4.3a427 427 0 0 0-1.428-1.79c29.106-48.064 23.41-95.612 18.346-137.774-2.082-17.304-4.042-33.648-3.542-48.996 0.518-16.28 2.67-30.23 4.752-43.726 2.556-16.626 5.162-33.83 4.438-54.11 0.54-2.126 0.758-4.638 0.474-7.624-1.83-19.456-24.04-77.658-69.302-130.348-24.752-28.814-60.858-61.058-110.15-82.81zM342.656 584.444a140.114 140.114 0 0 0 10.088 9.518c-13.896 14.876-44.096 47.782-76.238 86.448-22.744 27.348-38.452 22.12-43.618 20.392-33.656-11.228-72.708-82.364-107.138-195.174-29.792-97.604-47.206-195.75-48.58-223.276-4.352-87.04 16.746-147.704 62.712-180.302 74.8-53.052 197.794-21.296 247.214-5.19-0.714 0.698-1.45 1.354-2.15 2.064-81.098 81.904-79.174 221.836-78.972 230.386-0.012 3.298 0.266 7.968 0.646 14.398 1.394 23.532 3.992 67.336-2.946 116.946-6.444 46.098 7.762 91.214 38.982 123.79z m453.21 17.714c-16.07 4.638-44.918 15.334-42.288 68.81-2.114 26.814-17.2 152.436-24.856 196.836-10.108 58.648-31.696 80.492-92.36 93.498-62.914 13.486-85.172-18.62-99.854-55.308-9.47-23.694-14.118-130.508-10.826-248.464a13.88 13.88 0 0 0-0.614-4.502 58.684 58.684 0 0 0-1.758-8.34c-4.904-17.168-16.876-31.518-31.234-37.472-4.494-1.864-11.288-4.67-19.644-4.67a36.16 36.16 0 0 0-9.116 1.162c2.686-11.052 7.338-23.524 12.378-37.038l2.118-5.686c2.38-6.414 5.374-13.052 8.536-20.088 17.09-37.962 40.496-89.968 15.094-207.448-9.516-44.002-41.294-65.488-89.456-60.5-28.88 2.99-55.294 14.642-68.472 21.322-2.844 1.44-5.454 2.834-7.882 4.19 3.634-44.272 17.47-126.994 69.502-179.546 32.732-33.062 76.326-49.39 129.496-48.512 104.628 1.718 171.722 55.412 209.59 100.156 32.63 38.56 50.296 77.398 57.348 98.346-53.008-5.392-89.092 5.078-107.372 31.214-39.78 56.858 21.756 167.206 51.33 220.242 5.42 9.724 10.108 18.116 11.576 21.69 9.624 23.338 22.096 38.922 31.21 50.296 2.786 3.488 5.488 6.874 7.554 9.812z m-299.86 50.346c1.162 4.074 2.476 11.802-1.814 17.804-21.616 30.268-51.372 45.62-88.44 45.62-12.19 0-25.132-1.696-38.48-5.036-7.808-1.952-14.83-5.34-18.954-8.146 3.442-1.624 9.568-3.824 20.192-6.01 51.42-10.594 59.358-18.062 76.698-40.078 3.978-5.048 8.488-10.77 14.734-17.748 4.716-5.276 8.92-7.954 12.492-7.954 2.506 0 5.332 1.08 8.766 2.5 6.248 2.598 12.338 10.424 14.806 19.048z m442.71-17.642c0.216-0.048 0.436-0.098 0.644-0.136-7.874 7.366-21.338 17.238-40.448 26.114-16.426 7.624-43.902 13.342-70.014 14.568-28.84 1.34-43.522-3.226-46.974-6.05-1.614-33.316 10.792-36.8 23.918-40.488 2.056-0.58 4.074-1.144 6.01-1.822 1.21 0.976 2.534 1.958 3.986 2.912 23.178 15.3 64.522 16.946 122.878 4.902zM449.072 556.74l2.11-5.646c2.714-7.316 5.896-14.376 9.266-21.862 16.326-36.28 36.652-81.438 13.228-189.782-4.53-20.928-15.416-33.088-33.284-37.182-39.15-8.97-94.054 20.446-105.9 30.95 0.11 2.372 0.288 5.38 0.488 8.808 1.456 24.516 4.162 70.154-3.166 122.562-5.232 37.424 6.196 73.944 31.352 100.186 19.79 20.65 45.804 32.074 72.55 32.154 3.076-12.616 8.032-25.892 13.356-40.188z m-36.86-218.856c-1.834-2.432-4.822-7.15-4.218-11.414 0.856-6.248 8.376-9.996 20.116-9.996 2.602 0 5.296 0.194 8.016 0.574 12.672 1.762 25.75 7.764 24.49 16.772-0.948 6.824-11.754 16.944-24.732 16.944-1.134 0-2.28-0.08-3.396-0.238-7.504-1.036-15.088-5.764-20.276-12.642z m594.154 278.57c-4.226-19.168-21.586-41.554-56.598-41.554-7.026 0-14.64 0.864-23.282 2.654-16.602 3.42-31.412 5.55-44.142 6.342 44.586-76.446 80.46-162.512 101.266-243.056 19.256-74.554 33.824-174.142-6.108-225.172C918.798 40.652 832.95 1.002 729.232 1.002c-58.456 0-106.196 13.06-120.652 17.48-22.796-3.976-47.336-6.204-72.964-6.62a310.62 310.62 0 0 0-5.092-0.04c-46.118 0-87.446 10.474-122.868 31.134-32.26-10.802-94.538-28.294-159.404-28.294-72.962 0-130.428 21.514-170.792 63.952C32.77 125.598 12.424 195.728 16.994 287.058c1.912 38.298 23.978 152.738 55.57 252.112 48.808 153.548 102.572 225.054 169.19 225.054 20.858 0 40.652-7.3 58.896-21.708 15.998 17.434 39.218 25.306 51.988 28.502 18.116 4.534 35.978 6.832 53.094 6.832 22.874 0 44.416-3.994 64.122-11.882 0.128 4.284 0.246 8.342 0.346 12.004 0.234 8.324 0.46 16.488 0.768 24.122 2.08 51.902 5.63 92.286 16.178 120.762 0.556 1.494 1.298 3.776 2.106 6.244 4.61 14.134 11.576 35.478 27.602 54.856 21.126 25.542 51.232 39.044 87.05 39.044 11.44 0 23.694-1.378 36.43-4.114 38.496-8.244 82.228-20.846 114.038-66.134 29.822-42.464 44.288-106 46.908-206.016l1.154-9.842 5.55 0.454c3.516 0.16 7.154 0.232 10.816 0.232 37.344 0 78.726-8.01 105.446-20.416 22.198-10.312 93.752-48.034 82.12-100.71z m-95.482 70.15c-22.974 10.664-59.582 17.408-91.318 17.408-15.222 0-29.298-1.564-40.238-4.968-5.18 47.612-16.192 136.396-22.604 173.602-12.004 69.57-43.006 101.128-114.408 116.44-12.156 2.598-23.208 3.76-33.244 3.768-68.424 0.008-90.076-54.154-98.938-76.306-10.826-27.072-14.588-115.906-13.826-206.062-24.564 22.232-55.36 33.858-90.556 33.858-14.512 0-29.776-1.976-45.37-5.88-4.51-1.13-44.07-11.746-43.542-37.038 0.478-23.144 33.506-29.954 45.938-32.518 43.708-9.004 46.532-12.584 60.112-29.824a441.466 441.466 0 0 1 9.906-12.238c-0.044-0.516-0.102-1.024-0.132-1.54-19.6-0.526-38.758-5.752-56.2-15.112-11.798 12.56-43.82 47.128-78.11 88.382-20.646 24.822-40.488 32.116-56.674 32.116-6.6 0.008-12.59-1.208-17.786-2.946-44.364-14.792-86.532-86.736-125.32-213.82-29.472-96.554-48.144-197.372-49.782-230.152-4.874-97.414 20.264-166.362 74.712-204.94 97.488-69.068 255.014-16.03 289.378-3.154 33.882-23.1 74.786-34.43 122.21-33.684 25.84 0.424 49.564 3.748 71.33 9.16 10.342-4.538 63.688-20.676 126.756-19.982 91.794 0.976 167.626 36.386 219.294 102.408 34.866 44.558 11.86 153.032 0.338 197.598-23.942 92.702-68.326 192.052-122.28 274.256 8.164 6.002 33.036 15.924 102.436 1.596 23.376-4.824 37.448-0.564 41.818 12.65 8.446 25.536-38.1 54.948-63.9 66.922z"
          fill=""/>
</svg>